<?xml version="1.0" encoding="utf-8"?>
<!-- Generator: Adobe Illustrator 22.0.1, SVG Export Plug-In . SVG Version: 6.00 Build 0)  -->
<svg version="1.1" id="Layer_1" xmlns="http://www.w3.org/2000/svg" xmlns:xlink="http://www.w3.org/1999/xlink" x="0px" y="0px"
	 viewBox="0 0 1045.7 241.3" style="enable-background:new 0 0 1045.7 241.3;" xml:space="preserve">
<style type="text/css">
	.st0{fill:#FFD050;}
	.st1{fill:#DBAF44;}
</style>
<g>
	<g>
		<path class="st0" d="M31.8,78v-4c0-12.5,10.1-22.6,22.6-22.6h991.2V22.6c0-12.5-10.1-22.6-22.6-22.6H22.6C10.1,0,0,10.1,0,22.6
			v196.1c0,12.5,10.1,22.6,22.6,22.6H1023c12.5,0,22.6-10.1,22.6-22.6V100.6H54.4C41.9,100.6,31.8,90.5,31.8,78z"/>
		<path class="st1" d="M54.4,51.4c-12.5,0-22.6,10.1-22.6,22.6v4c0,12.5,10.1,22.6,22.6,22.6h991.2V51.4H54.4z"/>
	</g>
	<path class="st1" d="M991.2,199.8c12.5,0,22.6-10.1,22.6-22.6v-4c0-12.5-10.1-22.6-22.6-22.6H0v49.3H991.2z"/>
</g>
</svg>
