<?xml version="1.0" encoding="utf-8"?>
<!-- Generator: Adobe Illustrator 22.0.1, SVG Export Plug-In . SVG Version: 6.00 Build 0)  -->
<svg version="1.1" id="Layer_1" xmlns="http://www.w3.org/2000/svg" xmlns:xlink="http://www.w3.org/1999/xlink" x="0px" y="0px"
	 viewBox="0 0 411.2 617.7" style="enable-background:new 0 0 411.2 617.7;" xml:space="preserve">
<style type="text/css">
	.st0{fill:none;}
	.st1{fill:#C0212B;}
	.st2{fill:#D32027;}
	.st3{fill:#D6DFE8;}
	.st4{fill:#F2F2F2;}
	.st5{fill:#F27056;}
	.st6{fill:#E4563C;}
</style>
<g>
	<path class="st0" d="M260.6,211.3c-34.5,13.8,19.5,139.1,19.5,139.1s21.8,37.9,44.8,72.4c23,34.5,54-49.4,37.9-116.1
		C346.8,240,295.1,197.5,260.6,211.3z"/>
	<path class="st1" d="M242.2,79.1c0.6,0,1.1,0.1,1.6,0.2V17.1c0-9.5-8.3-17.1-18.5-17.1h-73.4v79.1H242.2z"/>
	<path class="st2" d="M151.8,79.1V0H86.7C76.5,0,68.2,7.7,68.2,17.1v62.2c0.2-0.2,0.4-0.3,0.4-0.3H151.8z"/>
	<path class="st3" d="M359.5,617.2c0,0,47.1-21.8,26.4-94.3c0,0,8.5-11.9,11.5-21.8c6.9-23-4.6-29.9-2.3-47.1
		c2.3-17.2,44.8-154.1-18.4-240.3c-63.2-86.2-123-93.1-123-93.1s2.1-38.1-9.9-41.2c-0.5-0.1-1-0.2-1.6-0.2h-90.4v23v515.2"/>
	<path class="st3" d="M325,422.9c-23-34.5-44.8-72.4-44.8-72.4s-54-125.3-19.5-139.1c34.5-13.8,86.2,28.7,102.3,95.4
		C379,373.4,348,457.4,325,422.9z"/>
	<path class="st4" d="M151.8,617.2V102v-23H68.5c0,0-0.2,0.1-0.4,0.3c-2.1,1.7-12.3,11.2-12.3,31.9c0,0-37.9,51.7-36.8,79.3
		c1.1,27.6,13.8,85.1,8,118.4C21.4,342.4-9.6,468.9,3,530.9c12.6,62.1,40.2,90.8,104.6,86.2"/>
	<g>
		<path class="st5" d="M78.7,276.9c-13.6,0-24.6,11-24.6,24.6v225.8c0,13.6,11,24.6,24.6,24.6h73.6v-275H78.7z"/>
		<path class="st6" d="M229,276.9h-76.6v275H229c13.6,0,24.6-11,24.6-24.6V301.5C253.6,287.9,242.6,276.9,229,276.9z"/>
	</g>
</g>
</svg>
