<?xml version="1.0" encoding="utf-8"?>
<!-- Generator: Adobe Illustrator 22.0.1, SVG Export Plug-In . SVG Version: 6.00 Build 0)  -->
<svg version="1.1" id="Layer_1" xmlns="http://www.w3.org/2000/svg" xmlns:xlink="http://www.w3.org/1999/xlink" x="0px" y="0px"
	 viewBox="0 0 650 63" style="enable-background:new 0 0 650 63;" xml:space="preserve">
<style type="text/css">
	.st0{fill:#6F7E91;}
</style>
<g>
	<g>
		<path class="st0" d="M265.2,36.4c2.4,15,15.2,26.4,30.8,26.4h11c2.8,0,5-2.2,5-5V5c0-2.8-2.2-5-5-5h-10.8
			c-15.6,0-28.6,11.4-30.8,26.4h-20.8c-2.8,0-5,2.2-5,5s2.2,5,5,5H265.2z M296.4,10h6v43h-6c-11.8-0.2-21.4-9.8-21.4-21.6
			C274.6,19.6,284.6,10,296.4,10z"/>
		<path class="st0" d="M326.4,39.8c-2.8,0-5,2.2-5,5s2.2,5,5,5H338V58c0,2.8,2.2,5,5,5h10.8c15.6,0,28.6-11.4,30.8-26.4h20.8
			c2.8,0,5-2.2,5-5s-2.2-5-5-5h-20.6c-2.4-15-15.2-26.4-30.8-26.4h-11c-2.8,0-5,2.2-5,5v8.2h-11.6c-2.8,0-5,2.2-5,5s2.2,5,5,5H338
			v16.4H326.4L326.4,39.8z M347.6,10h6c11.8,0,21.4,9.6,21.4,21.4s-9.6,21.4-21.4,21.4h-6C347.6,52.8,347.6,10,347.6,10z"/>
	</g>
	<rect x="400" y="26.6" class="st0" width="250" height="10"/>
	<rect y="26.4" class="st0" width="250" height="10"/>
</g>
</svg>
