<svg height='200' width='200'  fill="#000000" xmlns="http://www.w3.org/2000/svg" xmlns:xlink="http://www.w3.org/1999/xlink" version="1.1" x="0px" y="0px" viewBox="0 0 100 100" enable-background="new 0 0 100 100" xml:space="preserve"><g><path d="M80.311,100H4.656C2.085,100,0,97.915,0,95.344V19.689c0-2.571,2.085-4.656,4.656-4.656h37.827   c2.571,0,4.656,2.085,4.656,4.656s-2.085,4.656-4.656,4.656H9.311v66.344h66.344V57.517c0-2.571,2.085-4.656,4.656-4.656   s4.656,2.085,4.656,4.656v37.827C84.966,97.915,82.882,100,80.311,100z"></path></g><g><g><path d="M98.638,12.403L87.767,1.532c-1.816-1.827-4.772-1.827-6.588,0l-9.73,9.73c-0.035,0.023-0.07,0.058-0.105,0.105h-0.012    L33.331,49.381c-0.419,0.419-0.757,0.919-0.989,1.455l-8.147,19.018c-0.745,1.746-0.349,3.771,0.989,5.121    c0.896,0.896,2.083,1.362,3.294,1.362c0.617,0,1.245-0.116,1.839-0.372l19.007-8.136c0.547-0.233,1.036-0.57,1.455-0.989    l47.86-47.86C100.454,17.164,100.454,14.219,98.638,12.403z M44.83,59.624l-7.496,3.201l3.212-7.496l33.265-33.253l4.283,4.283    L44.83,59.624z M83.03,21.424l-4.283-4.295l5.726-5.726l4.283,4.283L83.03,21.424z"></path></g></g></svg>