<?xml version="1.0" encoding="utf-8"?>
<!-- Generator: Adobe Illustrator 22.0.1, SVG Export Plug-In . SVG Version: 6.00 Build 0)  -->
<svg version="1.1" id="Layer_1" xmlns="http://www.w3.org/2000/svg" xmlns:xlink="http://www.w3.org/1999/xlink" x="0px" y="0px"
	 viewBox="0 0 133.3 133.3" style="enable-background:new 0 0 133.3 133.3;" xml:space="preserve">
<style type="text/css">
	.st0{fill:#6F7E91;}
</style>
<path class="st0" d="M111.7,2.5C110,0.8,107.5,0,105.8,0h-15H42.5H8.3C3.3,0,0,3.3,0,8.3V125c0,5,3.3,8.3,8.3,8.3H125
	c5,0,8.3-3.3,8.3-8.3V27.5c0-2.5-0.8-4.2-2.5-5.8L111.7,2.5z M50.8,16.7h31.7v22.5H50.8V16.7z M116.7,116.7h-100v-100h17.5v30.8
	c0,5,3.3,8.3,8.3,8.3h48.3c5,0,8.3-3.3,8.3-8.3V16.7h2.5l15,14.2V116.7z"/>
<path class="st0" d="M90.8,77.5H42.5c-5,0-8.3,3.3-8.3,8.3c0,5,3.3,8.3,8.3,8.3h48.3c5,0,8.3-3.3,8.3-8.3
	C99.2,80.8,95.8,77.5,90.8,77.5z"/>
</svg>
