<?xml version="1.0" encoding="utf-8"?>
<!-- Generator: Adobe Illustrator 22.0.1, SVG Export Plug-In . SVG Version: 6.00 Build 0)  -->
<svg version="1.1" id="Layer_1" xmlns:sketch="http://www.bohemiancoding.com/sketch/ns"
	 xmlns="http://www.w3.org/2000/svg" xmlns:xlink="http://www.w3.org/1999/xlink" x="0px" y="0px" viewBox="0 0 159.2 86.9"
	 style="enable-background:new 0 0 159.2 86.9;" xml:space="preserve">
<style type="text/css">
	.st0{fill:#6F7E91;}
</style>
<title>eye-fill 140</title>
<desc>Created with Sketch.</desc>
<g sketch:type="MSPage">
	<path sketch:type="MSShapeGroup" class="st0" d="M13.3,79.4c-3.2,0-5.8-2.6-5.8-5.8c0-3.2,2.6-5.8,5.8-5.8c0.6,0,1.1,0.2,1.6,0.3
		c1.3,0.4,2.3,1.1,3.1,2.2c0.3,0.5,0.6,1,0.8,1.5s0.4,1.1,0.4,1.8c0,0.5-0.2,0.9-0.3,1.4C18.2,77.5,16,79.4,13.3,79.4 M56.8,34.9
		c-0.5,0.2-1.1,0.3-1.7,0.3c-0.4,0-0.7-0.1-1.1-0.2c-1.3-0.3-2.5-0.9-3.3-1.9c-0.8-1-1.4-2.3-1.4-3.7c0-0.2,0.1-0.3,0.1-0.5
		c0.3-2.9,2.7-5.3,5.7-5.3c2.7,0,4.8,1.8,5.5,4.3c0.1,0.5,0.3,1,0.3,1.6c0,1.2-0.5,2.3-1.1,3.2C59.1,33.8,58.1,34.5,56.8,34.9
		 M88.9,71.5c0-0.1,0-0.2,0.1-0.2c0.1-1.5,0.7-2.8,1.6-3.8c0.9-0.9,2.2-1.5,3.6-1.6c0.2,0,0.4-0.1,0.6-0.1c0.9,0,1.7,0.2,2.4,0.5
		c1.2,0.5,2.1,1.5,2.7,2.6c0.4,0.8,0.7,1.7,0.7,2.6c0,3-2.3,5.3-5.2,5.7c-0.2,0-0.4,0.1-0.6,0.1C91.5,77.3,88.9,74.7,88.9,71.5
		 M145.9,19.1c-0.3,0-0.6-0.1-0.9-0.2c-1.3-0.2-2.5-0.8-3.4-1.8c-0.7-0.8-1.2-1.9-1.3-3c0-0.3-0.2-0.5-0.2-0.8
		c0-0.1,0.1-0.2,0.1-0.3c0.2-3,2.6-5.5,5.7-5.5c0,0,0,0,0.1,0c0.7-0.1,1.4,0.1,2,0.4c0.2,0.1,0.4,0.2,0.6,0.3c0.1,0,0.1,0.1,0.2,0.1
		c1.7,1,2.9,2.8,2.9,4.9C151.7,16.5,149.1,19.1,145.9,19.1 M145.9,0c-7.3,0-13.3,6-13.3,13.3c0,1.5,0.3,2.8,0.7,4.1
		c0.3,0.9,0.7,1.8,1.1,2.6l-32.6,40.3c-2.1-1.3-4.5-2.1-7.2-2.1c-2.2,0-4.2,0.6-6,1.5L75.6,44.8l-8.5-9.6c0.9-1.7,1.4-3.7,1.4-5.8
		c0-7.3-6-13.3-13.3-13.3s-13.3,6-13.3,13.3c0,2.3,0.6,4.4,1.6,6.2L20.1,62.2c-2-1.2-4.3-1.9-6.8-1.9C6,60.3,0,66.3,0,73.6
		c0,7.3,6,13.3,13.3,13.3c7.3,0,13.3-6,13.3-13.3c0-1.8-0.4-3.5-1-5c-0.1-0.3-0.3-0.5-0.4-0.8l23.6-26.7c1.9,1.1,4.1,1.7,6.4,1.7
		c2.5,0,4.9-0.7,6.9-2l6.5,7.4l14.7,16.7c-1.2,2-1.9,4.2-1.9,6.7c0,7.3,6,13.3,13.3,13.3s13.3-6,13.3-13.3c0-1.9-0.4-3.7-1.2-5.4
		l33.1-41c1.8,0.9,3.8,1.5,5.9,1.5c7.3,0,13.3-6,13.3-13.3C159.2,6,153.2,0,145.9,0"/>
</g>
</svg>
