<?xml version="1.0" encoding="utf-8"?>
<!-- Generator: Adobe Illustrator 22.0.1, SVG Export Plug-In . SVG Version: 6.00 Build 0)  -->
<svg version="1.1" id="Layer_1" xmlns="http://www.w3.org/2000/svg" xmlns:xlink="http://www.w3.org/1999/xlink" x="0px" y="0px"
	 viewBox="0 0 76 116.1" style="enable-background:new 0 0 76 116.1;" xml:space="preserve">
<style type="text/css">
	.st0{fill:#FFFFFF;}
</style>
<title>On Time</title>
<desc>Created with Sketch.</desc>
<path class="st0" d="M0,12.1C0,6.9,4,2.3,9.2,1.7l2.2-0.3c14.7-1.8,38.3-1.8,53.1,0l2.2,0.3C72,2.3,76,6.9,76,12.1
	c0,17.9-5.5,26.3-18.5,35.6c-6.1,4.5-7.8,6.6-7.8,10.5s1.6,5.9,7.7,10.4C70.5,78,76,86.4,76,104.1c0,5.2-4,9.8-9.2,10.5l-0.2,0
	c-15.8,2-41.2,2-57.1,0l-0.2,0C4,113.9,0,109.4,0,104.1C0,86.4,5.5,78,18.6,68.6c0.1-0.1,0.1-0.1,0.3-0.3c5.9-4.6,7.3-6.5,7.3-10.3
	c0-3.8-1.6-5.9-7.8-10.5C5.5,38.2,0,29.9,0,12.1z M32.3,58c0,7.8-5.2,11.5-10.2,15.5C14.5,79,6,85.4,6,104.1c0,2.2,1.8,4.2,4,4.5
	l0.2,0c15.3,1.9,40.2,1.9,55.6,0l0.2,0c2.2-0.3,4-2.3,4-4.5c0-18.7-8.5-25.2-16.1-30.6c-5-3.7-10.2-7.6-10.2-15.3
	s5.2-11.5,10.2-15.3C61.5,37.5,70,31,70,12.1c0-2.2-1.8-4.2-4-4.5l-2.2-0.3c-14.2-1.8-37.3-1.8-51.6,0L10,7.6c-2.2,0.3-4,2.3-4,4.5
	c0,18.7,8.5,25.2,16.1,30.6C27.1,46.5,32.3,50.4,32.3,58z"/>
</svg>
