<?xml version="1.0" encoding="utf-8"?>
<!-- Generator: Adobe Illustrator 22.0.1, SVG Export Plug-In . SVG Version: 6.00 Build 0)  -->
<svg version="1.1" id="Layer_1" xmlns="http://www.w3.org/2000/svg" xmlns:xlink="http://www.w3.org/1999/xlink" x="0px" y="0px"
	 viewBox="0 0 33.3 133.3" style="enable-background:new 0 0 33.3 133.3;" xml:space="preserve">
<style type="text/css">
	.st0{display:none;}
	.st1{display:inline;}
	.st2{fill:#6F7E91;}
</style>
<g class="st0">
	<g class="st1">
		<path class="st2" d="M16.7,20.8c-4.6,0-8.3-3.7-8.3-8.3V-4.2c0-4.6,3.7-8.3,8.3-8.3S25-8.8,25-4.2v16.7
			C25,17.1,21.2,20.8,16.7,20.8z"/>
	</g>
	<g class="st1">
		<path class="st2" d="M83.3,154.2H-50c-3.3,0-6.2-2.1-7.5-5c-1.7-3.3-0.8-6.7,1.7-9.2l14.2-14.2V62.5c0-32.1,26.2-58.3,58.3-58.3
			S75,30.4,75,62.5v63.3L89.2,140c2.5,2.5,2.9,5.8,1.7,9.2C89.6,152.1,86.7,154.2,83.3,154.2z M-30,137.5h92.9l-2.5-2.5
			c-1.2-1.7-2.1-3.8-2.1-5.8V62.5c0-22.9-18.8-41.7-41.7-41.7S-25,39.6-25,62.5v66.7c0,2.1-0.8,4.2-2.5,5.8L-30,137.5z"/>
	</g>
	<g class="st1">
		<path class="st2" d="M16.7,179.2c-18.3,0-33.3-15-33.3-33.3c0-4.6,3.7-8.3,8.3-8.3s8.3,3.8,8.3,8.3c0,9.2,7.5,16.7,16.7,16.7
			s16.7-7.5,16.7-16.7c0-4.6,3.8-8.3,8.3-8.3s8.3,3.8,8.3,8.3C50,164.2,35,179.2,16.7,179.2z"/>
	</g>
</g>
<g class="st0">
	<g class="st1">
		<path class="st2" d="M0,141.7c-41.2,0-75-33.7-75-75s33.8-75,75-75s75,33.8,75,75S41.2,141.7,0,141.7z M0,8.3
			c-32.1,0-58.3,26.2-58.3,58.3S-32.1,125,0,125s58.3-26.2,58.3-58.3S32.1,8.3,0,8.3z"/>
	</g>
	<g class="st1">
		<path class="st2" d="M83.3,158.3c-2.1,0-4.2-0.8-5.8-2.5l-33.3-33.3c-3.3-3.3-3.3-8.3,0-11.7c3.3-3.3,8.3-3.3,11.7,0l33.3,33.3
			c3.3,3.3,3.3,8.3,0,11.7C87.5,157.5,85.4,158.3,83.3,158.3z"/>
	</g>
</g>
<g class="st0">
	<g class="st1">
		<path class="st2" d="M16.7,91.7c-27.5,0-50-22.5-50-50s22.5-50,50-50s50,22.5,50,50S44.2,91.7,16.7,91.7z M16.7,8.3
			c-18.3,0-33.3,15-33.3,33.3S-1.7,75,16.7,75S50,60,50,41.7S35,8.3,16.7,8.3z"/>
	</g>
	<g class="st1">
		<path class="st2" d="M100,175c-4.6,0-8.3-3.8-8.3-8.3c0-41.2-33.7-75-75-75s-75,33.7-75,75c0,4.6-3.8,8.3-8.3,8.3
			s-8.3-3.8-8.3-8.3C-75,116.2-33.8,75,16.7,75s91.7,41.2,91.7,91.7C108.3,171.2,104.6,175,100,175z"/>
	</g>
</g>
<g class="st0">
	<g class="st1">
		<path class="st2" d="M16.7,158.3c-41.2,0-75-33.7-75-75s33.8-75,75-75s75,33.8,75,75S57.9,158.3,16.7,158.3z M16.7,25
			c-32.1,0-58.3,26.2-58.3,58.3s26.2,58.3,58.3,58.3S75,115.4,75,83.3S48.8,25,16.7,25z"/>
	</g>
	<g class="st1">
		<path class="st2" d="M16.7,125C-6.2,125-25,106.2-25,83.3s18.8-41.7,41.7-41.7s41.7,18.8,41.7,41.7S39.6,125,16.7,125z M16.7,58.3
			c-13.7,0-25,11.3-25,25s11.3,25,25,25s25-11.2,25-25S30.4,58.3,16.7,58.3z"/>
	</g>
	<g class="st1">
		<path class="st2" d="M16.7,25c-4.6,0-8.3-3.8-8.3-8.3V0c0-4.6,3.7-8.3,8.3-8.3S25-4.6,25,0v16.7C25,21.2,21.2,25,16.7,25z"/>
	</g>
	<g class="st1">
		<path class="st2" d="M-16.7,33.8c-2.9,0-5.8-1.7-7.1-4.2L-32.1,15c-2.5-4.2-0.8-9.2,2.9-11.2C-25,1.3-20,2.9-17.9,6.7l8.3,14.6
			c2.5,4.2,0.8,9.2-2.9,11.2C-13.7,33.8-15.4,33.8-16.7,33.8z"/>
	</g>
	<g class="st1">
		<path class="st2" d="M-41.2,58.3c-1.2,0-2.9-0.4-4.2-1.2L-60,48.8c-4.2-2.5-5.4-7.5-2.9-11.2c2.5-4.2,7.5-5.4,11.2-2.9l14.6,8.3
			c4.2,2.5,5.4,7.5,2.9,11.3C-35.4,56.7-38.3,58.3-41.2,58.3z"/>
	</g>
	<g class="st1">
		<path class="st2" d="M-50,91.7h-16.7c-4.6,0-8.3-3.8-8.3-8.3s3.8-8.3,8.3-8.3H-50c4.6,0,8.3,3.7,8.3,8.3S-45.4,91.7-50,91.7z"/>
	</g>
	<g class="st1">
		<path class="st2" d="M-55.4,133.3c-2.9,0-5.8-1.7-7.1-4.2c-2.5-4.2-0.8-9.2,2.9-11.2l14.6-8.3c4.2-2.5,9.2-0.8,11.2,2.9
			c2.5,4.2,0.8,9.2-2.9,11.3l-14.6,8.3C-52.5,132.9-54.2,133.3-55.4,133.3z"/>
	</g>
	<g class="st1">
		<path class="st2" d="M-25,163.7c-1.2,0-2.9-0.4-4.2-1.2c-4.2-2.5-5.4-7.5-2.9-11.3l8.3-14.6c2.5-4.2,7.5-5.4,11.2-2.9
			c3.7,2.5,5.4,7.5,2.9,11.2l-8.3,14.6C-19.2,162.5-22.1,163.7-25,163.7z"/>
	</g>
	<g class="st1">
		<path class="st2" d="M16.7,175c-4.6,0-8.3-3.8-8.3-8.3V150c0-4.6,3.7-8.3,8.3-8.3s8.3,3.8,8.3,8.3v16.7
			C25,171.2,21.2,175,16.7,175z"/>
	</g>
	<g class="st1">
		<path class="st2" d="M58.3,163.7c-2.9,0-5.8-1.7-7.1-4.2L42.9,145c-2.5-4.2-0.8-9.2,2.9-11.2c4.2-2.5,9.2-0.8,11.3,2.9l8.3,14.6
			c2.5,4.2,0.8,9.2-2.9,11.3C61.2,163.3,59.6,163.7,58.3,163.7z"/>
	</g>
	<g class="st1">
		<path class="st2" d="M88.7,133.3c-1.2,0-2.9-0.4-4.2-1.2L70,123.8c-4.2-2.5-5.4-7.5-2.9-11.3c2.5-4.2,7.5-5.4,11.3-2.9l14.6,8.3
			c4.2,2.5,5.4,7.5,2.9,11.2C94.6,131.7,91.7,133.3,88.7,133.3z"/>
	</g>
	<g class="st1">
		<path class="st2" d="M100,91.7H83.3c-4.6,0-8.3-3.8-8.3-8.3s3.8-8.3,8.3-8.3H100c4.6,0,8.3,3.7,8.3,8.3S104.6,91.7,100,91.7z"/>
	</g>
	<g class="st1">
		<path class="st2" d="M74.6,58.3c-2.9,0-5.8-1.7-7.1-4.2C65,50,66.7,45,70.4,42.9L85,34.6c4.2-2.5,9.2-0.8,11.3,2.9
			c2.5,4.2,0.8,9.2-2.9,11.2l-14.6,8.3C77.1,57.9,75.8,58.3,74.6,58.3z"/>
	</g>
	<g class="st1">
		<path class="st2" d="M50,33.8c-1.2,0-2.9-0.4-4.2-1.2c-4.2-2.5-5.4-7.5-2.9-11.2l8.3-14.6c2.5-4.2,7.5-5.4,11.2-2.9
			c4.2,2.5,5.4,7.5,2.9,11.2l-8.3,14.6C55.8,32.5,52.9,33.8,50,33.8z"/>
	</g>
</g>
<g class="st0">
	<g class="st1">
		<path class="st2" d="M16.7,108.3C-6.2,108.3-25,89.6-25,66.7S-6.2,25,16.7,25s41.7,18.8,41.7,41.7S39.6,108.3,16.7,108.3z
			 M16.7,41.7c-13.7,0-25,11.3-25,25s11.3,25,25,25s25-11.2,25-25S30.4,41.7,16.7,41.7z"/>
	</g>
	<g class="st1">
		<path class="st2" d="M66.7,158.3c-4.6,0-8.3-3.8-8.3-8.3c0-22.9-18.8-41.7-41.7-41.7S-25,127.1-25,150c0,4.6-3.7,8.3-8.3,8.3
			s-8.3-3.8-8.3-8.3c0-32.1,26.2-58.3,58.3-58.3S75,117.9,75,150C75,154.6,71.2,158.3,66.7,158.3z"/>
	</g>
	<g class="st1">
		<path class="st2" d="M-33.3,91.7c-18.3,0-33.3-15-33.3-33.3S-51.7,25-33.3,25c4.6,0,8.3,3.7,8.3,8.3s-3.7,8.3-8.3,8.3
			c-9.2,0-16.7,7.5-16.7,16.7S-42.5,75-33.3,75c4.6,0,8.3,3.7,8.3,8.3S-28.7,91.7-33.3,91.7z"/>
	</g>
	<g class="st1">
		<path class="st2" d="M-75,133.3c-4.6,0-8.3-3.8-8.3-8.3c0-27.5,22.5-50,50-50c4.6,0,8.3,3.7,8.3,8.3s-3.7,8.3-8.3,8.3
			c-18.3,0-33.3,15-33.3,33.3C-66.7,129.6-70.4,133.3-75,133.3z"/>
	</g>
	<g class="st1">
		<path class="st2" d="M66.7,91.7c-4.6,0-8.3-3.8-8.3-8.3s3.8-8.3,8.3-8.3c9.2,0,16.7-7.5,16.7-16.7s-7.5-16.7-16.7-16.7
			c-4.6,0-8.3-3.7-8.3-8.3s3.8-8.3,8.3-8.3C85,25,100,40,100,58.3S85,91.7,66.7,91.7z"/>
	</g>
	<g class="st1">
		<path class="st2" d="M108.3,133.3c-4.6,0-8.3-3.8-8.3-8.3c0-18.3-15-33.3-33.3-33.3c-4.6,0-8.3-3.8-8.3-8.3s3.8-8.3,8.3-8.3
			c27.5,0,50,22.5,50,50C116.7,129.6,112.9,133.3,108.3,133.3z"/>
	</g>
</g>
<g class="st0">
	<g class="st1">
		<path class="st2" d="M16.7,158.3c-4.6,0-8.3-3.8-8.3-8.3V16.7c0-4.6,3.7-8.3,8.3-8.3s8.3,3.8,8.3,8.3V150
			C25,154.6,21.2,158.3,16.7,158.3z"/>
	</g>
	<g class="st1">
		<path class="st2" d="M83.3,91.7H-50c-4.6,0-8.3-3.8-8.3-8.3S-54.6,75-50,75H83.3c4.6,0,8.3,3.7,8.3,8.3S87.9,91.7,83.3,91.7z"/>
	</g>
</g>
<g>
	<g>
		<circle class="st2" cx="16.7" cy="16.7" r="16.7"/>
	</g>
	<g>
		<circle class="st2" cx="16.7" cy="66.7" r="16.7"/>
	</g>
	<g>
		<circle class="st2" cx="16.7" cy="116.7" r="16.7"/>
	</g>
</g>
<g class="st0">
	<g class="st1">
		<path class="st2" d="M-72.1,77.1c0.4,0,0.4-0.4,0.8-0.4c-0.4,0.4-0.8,0.8-1.2,0.8L-72.1,77.1z"/>
	</g>
	<g class="st1">
		<path class="st2" d="M75,83.3c0,4.6-3.8,8.3-8.3,8.3H-46.7l35.8,35.8c3.3,3.3,3.3,8.3,0,11.7c-1.7,1.7-3.8,2.5-5.8,2.5
			s-4.2-0.8-5.8-2.5l-50-50c-0.4-0.4-0.8-0.8-0.8-1.2l0,0c-0.4-0.4-0.4-0.8-0.8-1.2l0,0c-0.4-0.4-0.4-0.8-0.4-1.7l0,0
			c0-0.4,0-0.8,0-1.7s0-1.2,0-1.7l0,0c0-0.4,0.4-0.8,0.4-1.2l0,0c0.4-0.4,0.4-0.8,0.8-1.2l0,0c0.4-0.4,0.8-0.8,0.8-1.2
			c0.4-0.4,0.8-0.8,1.2-0.8c0,0-0.4,0.4-0.8,0.4l49.6-49.6c3.3-3.3,8.3-3.3,11.7,0s3.3,8.3,0,11.7L-46.7,75H66.7
			C71.2,75,75,78.7,75,83.3z"/>
		<path class="st2" d="M-72.1,77.1c0.4,0,0.4-0.4,0.8-0.4c-0.4,0.4-0.8,0.8-1.2,0.8L-72.1,77.1z"/>
	</g>
</g>
<g class="st0">
	<g class="st1">
		<path class="st2" d="M83.3,25h-25V0c0-4.6-3.8-8.3-8.3-8.3S41.7-4.6,41.7,0v25h-50V0c0-4.6-3.7-8.3-8.3-8.3S-25-4.6-25,0v25h-25
			c-13.8,0-25,11.2-25,25v100c0,13.7,11.2,25,25,25H83.3c13.8,0,25-11.3,25-25V50C108.3,36.2,97.1,25,83.3,25z M91.7,150
			c0,4.6-3.8,8.3-8.3,8.3H-50c-4.6,0-8.3-3.8-8.3-8.3V50c0-4.6,3.8-8.3,8.3-8.3h25V50c0,4.6,3.8,8.3,8.3,8.3s8.3-3.8,8.3-8.3v-8.3
			h50V50c0,4.6,3.8,8.3,8.3,8.3c4.6,0,8.3-3.8,8.3-8.3v-8.3h25c4.6,0,8.3,3.8,8.3,8.3V150z"/>
	</g>
	<g class="st1">
		<path class="st2" d="M0,100c-4.6,0-8.3-3.8-8.3-8.3s3.7-8.3,8.3-8.3l0,0c4.6,0,8.3,3.8,8.3,8.3S4.6,100,0,100z"/>
	</g>
	<g class="st1">
		<path class="st2" d="M33.3,100c-4.6,0-8.3-3.8-8.3-8.3s3.7-8.3,8.3-8.3l0,0c4.6,0,8.3,3.8,8.3,8.3S37.9,100,33.3,100z"/>
	</g>
	<g class="st1">
		<path class="st2" d="M66.7,100c-4.6,0-8.3-3.8-8.3-8.3s3.8-8.3,8.3-8.3l0,0c4.6,0,8.3,3.8,8.3,8.3S71.2,100,66.7,100z"/>
	</g>
	<g class="st1">
		<path class="st2" d="M-33.3,133.3c-4.6,0-8.3-3.8-8.3-8.3c0-4.6,3.7-8.3,8.3-8.3l0,0c4.6,0,8.3,3.8,8.3,8.3
			C-25,129.6-28.7,133.3-33.3,133.3z"/>
	</g>
	<g class="st1">
		<path class="st2" d="M0,133.3c-4.6,0-8.3-3.8-8.3-8.3c0-4.6,3.7-8.3,8.3-8.3l0,0c4.6,0,8.3,3.8,8.3,8.3
			C8.3,129.6,4.6,133.3,0,133.3z"/>
	</g>
	<g class="st1">
		<path class="st2" d="M33.3,133.3c-4.6,0-8.3-3.8-8.3-8.3c0-4.6,3.7-8.3,8.3-8.3l0,0c4.6,0,8.3,3.8,8.3,8.3
			C41.7,129.6,37.9,133.3,33.3,133.3z"/>
	</g>
</g>
<g class="st0">
	<g class="st1">
		<path class="st2" d="M-66.7,158.3c-1.2,0-2.1,0-3.3-0.8c-2.9-1.2-5-4.2-5-7.5V0c0-4.6,3.8-8.3,8.3-8.3H100c4.6,0,8.3,3.8,8.3,8.3
			v100c0,4.6-3.8,8.3-8.3,8.3H-13.3l-47.5,47.5C-62.5,157.5-64.6,158.3-66.7,158.3z M-58.3,8.3V130l35.8-35.8
			c1.7-1.7,3.7-2.5,5.8-2.5H91.7V8.3H-58.3z"/>
	</g>
</g>
<g class="st0">
	<g class="st1">
		<path class="st2" d="M16.7,158.3L16.7,158.3c-2.9,0-5.8-1.7-7.1-4.2L-7.1,125H-50c-2.9,0-5.8-1.7-7.1-4.2c-1.7-2.5-1.7-5.8,0-8.3
			L-35.8,75l-21.2-37.5c-1.7-2.5-1.7-5.8,0-8.3S-52.9,25-50,25h42.9L9.6-4.2c1.7-2.5,4.2-4.2,7.1-4.2s5.8,1.7,7.1,4.2L40.4,25h42.9
			c2.9,0,5.8,1.7,7.1,4.2c1.7,2.5,1.7,5.8,0,8.3L69.2,75l21.2,37.5c1.7,2.5,1.7,5.8,0,8.3s-4.2,4.2-7.1,4.2H40.4l-16.7,29.2
			C22.5,156.7,19.6,158.3,16.7,158.3z M-35.8,108.3h33.3c2.9,0,5.8,1.7,7.1,4.2l11.7,20.8l11.7-20.8c1.7-2.5,4.2-4.2,7.1-4.2h33.3
			L51.7,79.2c-1.7-2.5-1.7-5.8,0-8.3l16.7-29.2H35c-2.9,0-5.8-1.7-7.1-4.2L16.7,16.7L5,37.5c-1.7,2.5-4.2,4.2-7.1,4.2h-33.3
			l16.7,29.2c1.7,2.5,1.7,5.8,0,8.3L-35.8,108.3z"/>
	</g>
</g>
<g class="st0">
	<g class="st1">
		<path class="st2" d="M75,48.3L75,48.3c0-0.4-0.4-0.8-0.4-1.2c0,0,0,0,0-0.4c-0.4-0.4-0.4-0.8-0.8-1.2l0,0
			c-0.4-0.4-0.8-0.8-0.8-1.2l-0.4-0.4L22.9-5.4l-0.4-0.4c-0.4-0.4-0.8-0.8-1.2-0.8l0,0c-0.4-0.4-0.8-0.4-1.2-0.8c0,0,0,0-0.4,0
			c-0.4-0.4-0.8-0.4-1.2-0.4l0,0c-0.4,0-1.2,0-1.7,0H-50c-4.6-0.4-8.3,3.3-8.3,7.9v166.7c0,4.6,3.8,8.3,8.3,8.3H66.7
			c4.6,0,8.3-3.8,8.3-8.3V50C75,49.6,75,48.7,75,48.3z M25,20l21.7,21.7H25V20z M58.3,158.3h-100V8.3h50V50c0,4.6,3.7,8.3,8.3,8.3
			h41.7V158.3z"/>
	</g>
	<g class="st1">
		<path class="st2" d="M33.3,100h-50c-4.6,0-8.3-3.8-8.3-8.3s3.8-8.3,8.3-8.3h50c4.6,0,8.3,3.8,8.3,8.3S37.9,100,33.3,100z"/>
	</g>
	<g class="st1">
		<path class="st2" d="M33.3,133.3h-50c-4.6,0-8.3-3.8-8.3-8.3c0-4.6,3.8-8.3,8.3-8.3h50c4.6,0,8.3,3.8,8.3,8.3
			C41.7,129.6,37.9,133.3,33.3,133.3z"/>
	</g>
</g>
<g class="st0">
	<g class="st1">
		<path class="st2" d="M100,125H-16.7c-4.6,0-8.3-3.8-8.3-8.3V87.5c0-4.6,3.8-8.3,8.3-8.3s8.3,3.8,8.3,8.3v20.8h100V41.7h-100v20.8
			c0,4.6-3.7,8.3-8.3,8.3s-8.3-3.7-8.3-8.3V33.3c0-4.6,3.8-8.3,8.3-8.3H100c4.6,0,8.3,3.7,8.3,8.3v83.3
			C108.3,121.2,104.6,125,100,125z"/>
	</g>
	<g class="st1">
		<path class="st2" d="M-66.7,125c-4.6,0-8.3-3.8-8.3-8.3V33.3c0-4.6,3.8-8.3,8.3-8.3s8.3,3.7,8.3,8.3v83.3
			C-58.3,121.2-62.1,125-66.7,125z"/>
	</g>
	<g class="st1">
		<path class="st2" d="M-66.7,125c-2.9,0-5.8-1.7-7.1-4.2c-2.5-4.2-0.8-9.2,2.9-11.2l50-29.2c4.2-2.5,9.2-0.8,11.3,2.9
			c2.5,4.2,0.8,9.2-2.9,11.3l-50,29.2C-63.8,124.6-65.4,125-66.7,125z"/>
	</g>
	<g class="st1">
		<path class="st2" d="M-16.7,70.8c-1.2,0-2.9-0.4-4.2-1.2l-50-29.2c-4.2-2.5-5.4-7.5-2.9-11.2s7.5-5.4,11.3-2.9l50,29.2
			c4.2,2.5,5.4,7.5,2.9,11.3C-10.8,69.2-13.7,70.8-16.7,70.8z"/>
	</g>
</g>
<g class="st0">
	<g class="st1">
		<path class="st2" d="M100-8.3H-66.7C-71.2-8.3-75-4.6-75,0v166.7c0,4.6,3.8,8.3,8.3,8.3H100c4.6,0,8.3-3.8,8.3-8.3V0
			C108.3-4.6,104.6-8.3,100-8.3z M-58.3,8.3h150V80L55.8,44.2c-0.4-0.4-0.8-0.8-1.2-0.8c0,0,0,0-0.4,0c-0.4-0.4-0.8-0.4-1.2-0.8
			c-0.4,0-0.8-0.4-1.7-0.4c-0.4,0-0.8,0-1.7,0s-1.2,0-1.7,0l0,0c-0.4,0-0.8,0.4-1.7,0.4c-0.4,0.4-0.8,0.4-1.2,0.8l0,0
			c-0.4,0.4-0.8,0.8-1.2,0.8c-0.4,0.4-0.8,0.8-0.8,1.2l0,0L3.3,102.9l-21.7-25l-0.4-0.4c-0.4-0.4-0.8-0.8-0.8-0.8
			c-0.4-0.4-0.4-0.4-0.8-0.8h-0.4c-0.4,0-0.4-0.4-0.8-0.4h-0.4l0,0c-0.4,0-0.8,0-0.8-0.4c-0.4,0-0.8,0-1.3,0s-0.8,0-1.2,0
			s-0.8,0-1.3,0.4c-0.8,0-1.2,0.4-1.7,0.8c-0.4,0-0.4,0.4-0.8,0.4l0,0c-0.4,0.4-0.8,0.8-1.3,1.2l-27.9,32.5V8.3z M91.7,158.3h-150
			v-22.1l33.3-40l22.9,25.8c0.4,0.4,0.4,0.4,0.8,0.8c0.4,0.4,0.4,0.4,0.8,0.8c0.8,0.4,1.2,0.8,2.1,0.8h0.4c0.4,0,0.4,0,0.8,0
			s0.8,0,1.2,0c0.4,0,0.8,0,1.2,0c0.4,0,0.8,0,1.7-0.4c0.4-0.4,0.8-0.4,1.2-0.8c0.4-0.4,0.8-0.4,1.2-0.8c0.4,0,0.4-0.4,0.8-0.8
			c0.4-0.4,0.4-0.4,0.8-0.8l0,0l40-58.3l40.4,40.4L91.7,158.3L91.7,158.3z"/>
	</g>
</g>
<g class="st0">
	<g class="st1">
		<g>
			<path class="st2" d="M43.8,111.2l-2.1-6.2c-1.2-3.3-4.2-5.4-7.9-5.4H2.5c-3.3,0-6.7,2.1-7.9,5.4l-2.1,6.2
				c-1.2,3.3-4.2,5.4-7.9,5.4h-6.2c-5.8,0-10-5.8-7.9-11.3L2.5,22.1c1.2-3.3,4.2-5.4,7.9-5.4h15.4c3.3,0,6.2,2.1,7.5,5.4l32.1,83.3
				c2.1,5.4-2.1,11.3-7.9,11.3h-6.2C47.9,116.7,45,114.6,43.8,111.2z M10,59.6L6.2,70c-2.1,5.4,2.1,11.3,7.9,11.3h7.5
				c5.8,0,10-5.8,7.9-11.3l-3.7-10.4C23.3,52.1,12.9,52.1,10,59.6z"/>
		</g>
	</g>
	<g class="st1">
		<path class="st2" d="M66.7,141.7h-100c-4.6,0-8.3-3.8-8.3-8.3s3.7-8.3,8.3-8.3h100c4.6,0,8.3,3.8,8.3,8.3S71.2,141.7,66.7,141.7z"
			/>
	</g>
</g>
<g class="st0">
	<g class="st1">
		<path class="st2" d="M33.3-8.3h-50C-21.2-8.3-25-4.6-25,0v133.3c0,0.4,0,0.8,0,0.8v0.4c0,0.8,0.4,1.7,0.8,2.5
			c0,0.4,0.4,0.4,0.4,0.8l0,0l0.4,0.4l24.6,32.9c0.4,0.4,0.8,1.2,1.7,1.7c1.7,1.2,3.3,1.7,5,1.7c2.5,0,5-1.2,6.7-3.3l24.6-32.9
			l0.4-0.4l0,0c0-0.4,0.4-0.4,0.4-0.8c0.4-0.8,0.8-1.7,0.8-2.5v-0.4c0-0.4,0-0.8,0-0.8V0C41.7-4.6,37.9-8.3,33.3-8.3z M-8.3,8.3H25
			V25H-8.3V8.3z M8.3,152.9L0,141.7h16.7L8.3,152.9z M25,125H-8.3V41.7H25V125z"/>
	</g>
</g>
<g class="st0">
	<g class="st1">
		<path class="st2" d="M28.3,97.1c8.3-7.5,13.3-18.3,13.3-30.4C41.7,43.8,22.9,25,0,25s-41.7,18.8-41.7,41.7
			c0,12.1,5,22.9,13.3,30.4C-55.8,108.3-75,135.4-75,166.7c0,4.6,3.8,8.3,8.3,8.3s8.3-3.8,8.3-8.3c0-32.1,26.2-58.3,58.3-58.3
			s58.3,26.2,58.3,58.3c0,4.6,3.8,8.3,8.3,8.3s8.3-3.8,8.3-8.3C75,135.4,55.8,108.3,28.3,97.1z M-25,66.7c0-13.7,11.3-25,25-25
			s25,11.3,25,25s-11.3,25-25,25S-25,80.4-25,66.7z"/>
	</g>
	<g class="st1">
		<path class="st2" d="M116.7,41.7c0,4.6-3.8,8.3-8.3,8.3H91.7v16.7c0,4.6-3.8,8.3-8.3,8.3S75,71.2,75,66.7V50H58.3
			c-4.6,0-8.3-3.8-8.3-8.3s3.8-8.3,8.3-8.3H75V16.7c0-4.6,3.8-8.3,8.3-8.3s8.3,3.8,8.3,8.3v16.7h16.7
			C112.9,33.3,116.7,37.1,116.7,41.7z"/>
	</g>
</g>
<g class="st0">
	<g class="st1">
		<path class="st2" d="M100,25H75V0c0-4.6-3.8-8.3-8.3-8.3H-66.7C-71.2-8.3-75-4.6-75,0v116.7c0,3.3,1.7,6.2,4.6,7.5
			c1.2,0.4,2.5,0.8,3.8,0.8c1.7,0,3.3-0.4,5-1.7l20-15V150c0,3.3,1.7,6.2,4.6,7.5c1.3,0.4,2.5,0.8,3.8,0.8c2.1,0,3.7-0.8,5-1.7
			l41.7-33.3c3.7-2.9,4.2-8.3,1.2-11.7c-2.9-3.3-8.3-4.2-11.7-1.2L-25,132.5V41.7H91.7v50c0,4.6,3.8,8.3,8.3,8.3
			c4.6,0,8.3-3.8,8.3-8.3V33.3C108.3,28.7,104.6,25,100,25z M-33.3,25c-4.6,0-8.3,3.7-8.3,8.3v54.2L-58.3,100V8.3H58.3V25H-33.3z"/>
	</g>
	<g class="st1">
		<path class="st2" d="M108.3,116.7c0,4.6-3.8,8.3-8.3,8.3H75v25c0,4.6-3.8,8.3-8.3,8.3s-8.3-3.8-8.3-8.3v-25h-25
			c-4.6,0-8.3-3.8-8.3-8.3c0-4.6,3.7-8.3,8.3-8.3h25v-25c0-4.6,3.8-8.3,8.3-8.3s8.3,3.7,8.3,8.3v25h25
			C104.6,108.3,108.3,112.1,108.3,116.7z"/>
	</g>
</g>
<g class="st0">
	<g class="st1">
		<path class="st2" d="M16.7,175C-33.8,175-75,133.7-75,83.3S-33.8-8.3,16.7-8.3s91.7,41.2,91.7,91.7S67.1,175,16.7,175z M16.7,8.3
			c-41.2,0-75,33.8-75,75s33.8,75,75,75s75-33.7,75-75S57.9,8.3,16.7,8.3z"/>
	</g>
	<g class="st1">
		<path class="st2" d="M-16.7,125c-1.7,0-2.9-0.4-4.6-1.2c-2.5-1.7-3.8-4.2-3.8-7.1V50c0-2.9,1.7-5.4,3.8-7.1
			c2.5-1.7,5.4-1.7,7.9-0.4l66.7,33.3c2.9,1.2,4.6,4.2,4.6,7.5s-1.7,6.2-4.6,7.5l-66.7,33.3C-14.2,124.6-15.4,125-16.7,125z
			 M-8.3,63.3v39.6l39.6-20L-8.3,63.3z"/>
	</g>
</g>
<g class="st0">
	<g class="st1">
		<path class="st2" d="M75,25v100c0,32.1-26.2,58.3-58.3,58.3s-58.3-26.2-58.3-58.3V-8.3c0-4.6,3.7-8.3,8.3-8.3s8.3,3.8,8.3,8.3V125
			c0,22.9,18.8,41.7,41.7,41.7s41.7-18.8,41.7-41.7V25c0-13.8-11.3-25-25-25s-25,11.2-25,25v100c0,4.6,3.7,8.3,8.3,8.3
			s8.3-3.8,8.3-8.3V50c0-4.6,3.7-8.3,8.3-8.3s8.3,3.8,8.3,8.3v75c0,13.3-10.8,24.6-24.2,25c-0.4,0-0.4,0-0.8,0
			c-13.7,0-25-11.3-25-25V25c0-22.9,18.8-41.7,41.7-41.7S75,2.1,75,25z"/>
	</g>
</g>
<g class="st0">
	<g class="st1">
		<path class="st2" d="M107.1,28.7c-1.2-2.1-3.3-3.3-5.4-3.7h-0.4c-1.7-0.4-3.8,0.4-5.4,1.2h-0.4l-37.1,25V33.3
			c0-4.6-3.8-8.3-8.3-8.3H-66.7c-4.6,0-8.3,3.7-8.3,8.3v100c0,4.6,3.8,8.3,8.3,8.3H50c4.6,0,8.3-3.8,8.3-8.3v-17.9L95,140h0.4
			c1.2,0.8,2.9,1.2,4.6,1.2c0.4,0,0.4,0,0.8,0h0.4c2.1-0.4,4.2-1.7,5.4-3.8c0.8-1.2,1.2-2.9,1.2-4.6V33.3
			C108.3,31.7,107.9,30,107.1,28.7z M41.7,125h-100V41.7h100V125z M58.3,71.2l33.3-22.1v68.7L58.3,95.8V71.2z"/>
	</g>
</g>
</svg>
