<?xml version="1.0" encoding="utf-8"?>
<!-- Generator: Adobe Illustrator 22.0.1, SVG Export Plug-In . SVG Version: 6.00 Build 0)  -->
<svg version="1.1" id="Layer_1" xmlns="http://www.w3.org/2000/svg" xmlns:xlink="http://www.w3.org/1999/xlink" x="0px" y="0px"
	 viewBox="0 0 180 180" style="enable-background:new 0 0 180 180;" xml:space="preserve">
<style type="text/css">
	.st0{fill:#6F7E91;}
</style>
<path class="st0" d="M72.8,107.2L73,163c-0.2,9.4,7.6,17.2,17,17c9.6,0.2,17.2-7.6,17.2-17v-55.8h55.6c9.4,0.2,17.2-7.6,17.2-17.2
	c0-9.4-7.6-17-17.2-17h-55.6V17.2C107.2,7.6,99.6,0,90,0c-9.4,0-17.2,7.6-17,17.2V73H17.2C7.6,73,0,80.6,0,90
	c0,9.6,7.6,17.4,17.2,17.2H72.8z"/>
</svg>
