<?xml version="1.0" encoding="utf-8"?>
<!-- Generator: Adobe Illustrator 22.0.1, SVG Export Plug-In . SVG Version: 6.00 Build 0)  -->
<svg version="1.1" id="Layer_1" xmlns="http://www.w3.org/2000/svg" xmlns:xlink="http://www.w3.org/1999/xlink" x="0px" y="0px"
	 viewBox="0 0 179.8 156.3" style="enable-background:new 0 0 179.8 156.3;" xml:space="preserve">
<style type="text/css">
	.st0{fill:#6F7E91;}
</style>
<path class="st0" d="M141.6,97.2c-0.7,0-0.7,0-110.5,0C13.9,96.8,0,82.7,0,65.8c0-17.3,14.2-31.4,31.7-31.4c1.8,0,3.6,0.1,5.3,0.4
	C43,14.4,62.1,0,84.1,0c17.7,0,34,9.5,42.7,24.5c4.7-2,9.8-3,14.9-3c21.1,0,38.2,17,38.2,37.8C179.8,80.2,162.7,97.2,141.6,97.2z
	 M31.7,43.8c-12.3,0-22.3,9.9-22.3,22c0,11.9,9.8,21.7,21.8,22c109.7,0,109.7,0,110.4,0c15.9,0,28.8-12.8,28.8-28.4
	s-12.9-28.4-28.8-28.4c-5.1,0-10.2,1.4-14.6,3.9c-1.1,0.7-2.5,0.8-3.8,0.4c-1.3-0.4-2.3-1.3-2.8-2.5C114,18.5,99.8,9.4,84.1,9.4
	c-19.2,0-35.6,13.5-39,32c-0.3,1.3-1.1,2.5-2.2,3.2c-1.2,0.7-2.6,0.8-3.9,0.4C36.6,44.2,34.1,43.8,31.7,43.8z"/>
<g id="droplets">
	<path class="st0" d="M23.1,120.3l4.5-10.8c1-2.4-0.1-5.1-2.5-6.1c-2.4-1-5.1,0.1-6.1,2.5l-4.5,10.8c-1,2.4,0.1,5.1,2.5,6.1
		c0.6,0.2,1.2,0.4,1.8,0.4C20.6,123.1,22.3,122.1,23.1,120.3z"/>
	<path class="st0" d="M44.2,131.1l9-21.6c1-2.4-0.1-5.1-2.5-6.1s-5.1,0.1-6.1,2.5l-9,21.6c-1,2.4,0.1,5.1,2.5,6.1
		c0.6,0.2,1.2,0.4,1.8,0.4C41.7,134,43.4,132.9,44.2,131.1z"/>
	<path class="st0" d="M81.7,156.3c1.8,0,3.6-1.1,4.3-2.9l18.2-43.9c1-2.4-0.1-5.1-2.5-6.1c-2.4-1-5.1,0.1-6.1,2.5l-18.2,43.9
		c-1,2.4,0.1,5.1,2.5,6.1"/>
	<path class="st0" d="M146.4,131.1l9-21.6c1-2.4-0.1-5.1-2.5-6.1c-2.4-1-5.1,0.1-6.1,2.5l-9,21.6c-1,2.4,0.1,5.1,2.5,6.1
		c0.6,0.2,1.2,0.4,1.8,0.4C143.9,134,145.6,132.9,146.4,131.1z"/>
	<path class="st0" d="M74.2,120.3l4.5-10.8c1-2.4-0.1-5.1-2.5-6.1c-2.4-1-5.1,0.1-6.1,2.5l-4.5,10.8c-1,2.4,0.1,5.1,2.5,6.1
		c0.6,0.2,1.2,0.4,1.8,0.4C71.7,123.1,73.4,122.1,74.2,120.3z"/>
	<path class="st0" d="M125.3,120.3l4.5-10.8c1-2.4-0.1-5.1-2.5-6.1c-2.4-1-5.1,0.1-6.1,2.5l-4.5,10.8c-1,2.4,0.1,5.1,2.5,6.1
		c0.6,0.2,1.2,0.4,1.8,0.4C122.8,123.1,124.6,122.1,125.3,120.3z"/>
</g>
</svg>
