<?xml version="1.0" encoding="utf-8"?>
<!-- Generator: Adobe Illustrator 22.0.1, SVG Export Plug-In . SVG Version: 6.00 Build 0)  -->
<svg version="1.1" id="Layer_1" xmlns="http://www.w3.org/2000/svg" xmlns:xlink="http://www.w3.org/1999/xlink" x="0px" y="0px"
	 viewBox="0 0 104 104" style="enable-background:new 0 0 104 104;" xml:space="preserve">
<style type="text/css">
	.st0{fill:#6F7E91;}
</style>
<path class="st0" d="M72.8,64.4c2.4,2.4,2.4,6.2,0,8.4c-1.2,1.2-2.8,1.8-4.2,1.8s-3-0.6-4.2-1.8L52,60.4L39.6,72.8
	c-1.2,1.2-2.8,1.8-4.2,1.8s-3-0.6-4.2-1.8c-2.4-2.4-2.4-6.2,0-8.4L43.6,52L31.2,39.6c-2.4-2.4-2.4-6.2,0-8.4c2.4-2.4,6.2-2.4,8.4,0
	L52,43.6l12.4-12.4c2.4-2.4,6.2-2.4,8.4,0c2.4,2.4,2.4,6.2,0,8.4L60.4,52L72.8,64.4z M104,52c0,28.6-23.4,52-52,52S0,80.6,0,52
	S23.4,0,52,0S104,23.4,104,52z M92,52c0-22-18-40-40-40S12,30,12,52s18,40,40,40S92,74,92,52z"/>
</svg>
